<?xml version="1.0" encoding="UTF-8" standalone="no"?><!DOCTYPE svg PUBLIC "-//W3C//DTD SVG 1.1//EN" "http://www.w3.org/Graphics/SVG/1.1/DTD/svg11.dtd"><svg width="100%" height="100%" viewBox="0 0 1000 1000" version="1.1" xmlns="http://www.w3.org/2000/svg" xmlns:xlink="http://www.w3.org/1999/xlink" xml:space="preserve" xmlns:serif="http://www.serif.com/" style="fill-rule:evenodd;clip-rule:evenodd;stroke-linejoin:round;stroke-miterlimit:2;"><g id="Layer1"><path d="M290.698,143.152l397.933,0c0,0 83.979,1.292 153.747,46.512c76.762,49.753 89.147,145.995 89.147,218.346l0,156.331c0,0 -11.628,81.395 -56.848,127.907c-45.22,46.512 -109.819,89.147 -173.127,87.855c-63.307,-1.292 -187.339,0.029 -187.339,0.029l96.899,-109.848l81.395,0c0,0 120.093,6.506 118.863,-121.447c-1.292,-134.367 0,-191.214 0,-191.214c0,0 -33.592,-111.111 -126.615,-111.111l-276.486,0l0,335.917c0,0 -32.3,197.703 -206.718,197.703c-174.419,0 -144.703,0 -144.703,0l0,-113.724l139.535,0c0,0 93.023,7.752 93.023,-131.783c0,-139.535 1.292,-391.473 1.292,-391.473Z" style="fill:url(#_Radial1);"/><path d="M582.687,323.773l-120.155,120.155l0,312.661l118.739,-118.739l1.416,-314.078Z" style="fill:url(#_Linear2);"/></g><defs><radialGradient id="_Radial1" cx="0" cy="0" r="1" gradientUnits="userSpaceOnUse" gradientTransform="matrix(876.596314,0,0,636.979533,54.928234,461.642221)"><stop offset="0" style="stop-color:#1f0079;stop-opacity:1"/><stop offset="0.54" style="stop-color:#008caf;stop-opacity:1"/><stop offset="1" style="stop-color:#6bd1b5;stop-opacity:1"/></radialGradient><linearGradient id="_Linear2" x1="0" y1="0" x2="1" y2="0" gradientUnits="userSpaceOnUse" gradientTransform="matrix(120.155039,0,0,432.816537,462.5323,540.180879)"><stop offset="0" style="stop-color:#008cb6;stop-opacity:1"/><stop offset="1" style="stop-color:#1d96ae;stop-opacity:1"/></linearGradient></defs></svg>